<svg width="288" height="82" viewBox="0 0 288 82" fill="none" xmlns="http://www.w3.org/2000/svg">
<path d="M66.3064 0.21382L55.158 5.77314C58.9803 13.7201 61.847 20.9544 63.7582 27.4759C65.7047 33.9974 66.678 39.7705 66.678 44.7953C66.678 50.2121 65.864 55.219 64.2359 59.8162C62.6079 64.4489 60.2544 68.4402 57.1753 71.7901C54.2378 75.033 50.8579 77.5098 47.0356 79.2203C43.2133 80.9309 39.1432 81.7862 34.8254 81.7862C30.7554 81.7862 26.7915 81.3051 22.9338 80.3429C19.0761 79.4163 15.3069 77.9909 11.6262 76.0665L2.17659 82L16.0855 59.442C19.3416 63.3264 22.633 66.2308 25.9598 68.1551C29.2866 70.0795 32.6665 71.0417 36.0995 71.0417C40.6651 71.0417 44.3281 69.5806 47.0887 66.6584C49.8492 63.7362 51.2295 59.834 51.2295 54.9518C51.2295 53.1343 51.0171 51.3525 50.5924 49.6063C50.1677 47.8244 49.5484 46.0604 48.7344 44.3142C46.0446 48.5193 42.7178 51.7088 38.7539 53.8827C34.8254 56.0565 30.3838 57.1434 25.4289 57.1434C18.1382 57.1434 12.1394 55.0587 7.43226 50.8892C2.76055 46.7197 0.4247 41.4276 0.4247 35.013C0.4247 30.0952 1.46876 25.3911 3.55687 20.9009C5.68037 16.3751 9.02488 11.7066 13.5904 6.8957L0 4.06258L32.0649 0.32073C29.6582 3.2073 27.8002 6.16515 26.4907 9.19426C25.2166 12.2234 24.5795 15.0743 24.5795 17.7471C24.5795 20.5624 25.252 22.8787 26.5969 24.6962C27.9771 26.4781 29.729 27.369 31.8525 27.369C34.8608 27.369 37.3206 26.193 39.2317 23.8409C41.1429 21.4889 42.0984 18.4242 42.0984 14.6467C42.0984 12.1521 41.833 9.88918 41.3021 7.85789C40.7712 5.8266 39.9395 3.97349 38.807 2.29857L66.3064 0.21382Z" fill="white"/>
<path d="M83.5067 20.6871C84.6039 22.0413 85.8426 23.0391 87.2229 23.6806C88.6031 24.322 90.2311 24.6428 92.1069 24.6428C95.3276 24.6428 98.0527 23.6449 100.282 21.6493C102.512 19.6536 103.627 17.2125 103.627 14.3259C103.627 13.1856 103.45 12.1521 103.096 11.2256C102.742 10.299 102.194 9.47936 101.45 8.76662C97.1325 9.97827 93.4872 11.5819 90.5143 13.5776C87.5414 15.5376 85.2055 17.9074 83.5067 20.6871ZM132.878 29.0261C132.878 31.9483 132.507 34.6745 131.763 37.2047C131.02 39.7349 129.905 42.1047 128.419 44.3142C125.481 48.6975 121.659 52.1543 116.952 54.6845C112.28 57.2147 107.325 58.4798 102.087 58.4798C93.1687 58.4798 85.8072 55.7892 80.0029 50.4081C74.2341 44.9913 71.3497 38.1491 71.3497 29.8814C71.3497 21.1147 74.2872 13.9518 80.1622 8.39244C86.0726 2.79748 93.6818 0 102.99 0C111.767 0 118.934 2.70839 124.49 8.12516C130.082 13.5419 132.878 20.5089 132.878 29.0261Z" fill="white"/>
<path d="M221.216 56.7158L194.141 58.8005C196.902 55.9139 198.954 53.0808 200.299 50.3012C201.644 47.5215 202.317 44.724 202.317 41.9087C202.317 39.1647 201.715 36.9552 200.512 35.2803C199.308 33.5698 197.733 32.7145 195.787 32.7145C193.557 32.7145 191.575 33.837 189.841 36.0821C188.142 38.3272 187.293 40.9644 187.293 43.9935C187.293 45.6684 187.523 47.2186 187.983 48.6441C188.479 50.0339 189.222 51.4059 190.213 52.7601L169.455 51.5841C170.446 50.3012 171.19 49.0361 171.685 47.7888C172.181 46.5415 172.428 45.2764 172.428 43.9935C172.428 41.1425 171.774 38.7905 170.464 36.9374C169.155 35.0843 167.527 34.1578 165.58 34.1578C163.457 34.1578 161.616 35.2447 160.059 37.4185C158.502 39.5567 157.723 42.1582 157.723 45.2229C157.723 47.4681 158.13 49.535 158.944 51.4237C159.758 53.3125 161.015 55.1478 162.713 56.9296L134.471 58.8005L143.389 51.7979L142.275 6.14733L134.789 2.94003L158.732 0.42764L155.759 12.9361C158.201 8.94481 160.944 5.88005 163.987 3.74185C167.031 1.60365 170.128 0.53455 173.278 0.53455C176.286 0.53455 178.994 1.83529 181.4 4.43677C183.807 7.03824 185.417 10.4415 186.231 14.6467C188.248 10.0139 190.726 6.50369 193.663 4.11604C196.636 1.72838 199.981 0.53455 203.697 0.53455C208.616 0.53455 212.722 2.85093 216.013 7.4837C219.34 12.1165 221.003 17.9431 221.003 24.9635C221.003 29.7388 220.225 34.3894 218.668 38.9153C217.146 43.4411 214.775 48.0561 211.554 52.7601L221.216 56.7158Z" fill="white"/>
<path d="M238.629 20.6871C239.726 22.0413 240.964 23.0391 242.345 23.6806C243.725 24.322 245.353 24.6428 247.229 24.6428C250.449 24.6428 253.175 23.6449 255.404 21.6493C257.634 19.6536 258.749 17.2125 258.749 14.3259C258.749 13.1856 258.572 12.1521 258.218 11.2256C257.864 10.299 257.315 9.47936 256.572 8.76662C252.254 9.97827 248.609 11.5819 245.636 13.5776C242.663 15.5376 240.327 17.9074 238.629 20.6871ZM288 29.0261C288 31.9483 287.628 34.6745 286.885 37.2047C286.142 39.7349 285.027 42.1047 283.541 44.3142C280.603 48.6975 276.781 52.1543 272.074 54.6845C267.402 57.2147 262.447 58.4798 257.209 58.4798C248.29 58.4798 240.929 55.7892 235.125 50.4081C229.356 44.9913 226.472 38.1491 226.472 29.8814C226.472 21.1147 229.409 13.9518 235.284 8.39244C241.194 2.79748 248.804 0 258.112 0C266.889 0 274.056 2.70839 279.612 8.12516C285.204 13.5419 288 20.5089 288 29.0261Z" fill="white"/>
</svg>
