<svg width="150" height="150" viewBox="0 0 150 150" fill="none" xmlns="http://www.w3.org/2000/svg">
<path d="M75.5293 0.221498L64.6372 5.98044C68.3716 14.2128 71.1724 21.7068 73.0396 28.4625C74.9414 35.2182 75.8923 41.1986 75.8923 46.4038C75.8923 52.0151 75.097 57.2018 73.5064 61.964C71.9158 66.7632 69.6164 70.8978 66.6081 74.3679C63.7381 77.7273 60.4359 80.293 56.7015 82.065C52.967 83.837 48.9905 84.7229 44.772 84.7229C40.7955 84.7229 36.9228 84.2246 33.1538 83.2278C29.3848 82.268 25.7022 80.7914 22.1061 78.7979L12.8737 84.9444L26.4629 61.5764C29.6441 65.6003 32.8599 68.609 36.1102 70.6024C39.3605 72.5959 42.6628 73.5927 46.0168 73.5927C50.4774 73.5927 54.0562 72.0791 56.7533 69.052C59.4504 66.0248 60.799 61.9825 60.799 56.925C60.799 55.0422 60.5915 53.1964 60.1766 51.3875C59.7616 49.5417 59.1565 47.7143 58.3612 45.9054C55.7333 50.2616 52.4829 53.5656 48.6102 55.8175C44.772 58.0694 40.4325 59.1953 35.5915 59.1953C28.4684 59.1953 22.6074 57.0357 18.0086 52.7165C13.4442 48.3973 11.1621 42.9152 11.1621 36.2703C11.1621 31.1758 12.1821 26.3029 14.2222 21.6514C16.2969 16.963 19.5646 12.127 24.0251 7.14331L10.7471 4.20846L42.0749 0.332247C39.7236 3.32247 37.9083 6.38652 36.6289 9.52441C35.3841 12.6623 34.7617 15.6156 34.7617 18.3843C34.7617 21.3007 35.4186 23.7003 36.7326 25.583C38.0811 27.4288 39.7928 28.3517 41.8675 28.3517C44.8066 28.3517 47.2098 27.1335 49.077 24.697C50.9442 22.2605 51.8778 19.0857 51.8778 15.1726C51.8778 12.5885 51.6185 10.2443 51.0998 8.14005C50.5811 6.03582 49.7686 4.11617 48.6621 2.3811L75.5293 0.221498Z" fill="white"/>
<path d="M92.3342 21.4299C93.4062 22.8327 94.6164 23.8664 95.9649 24.5309C97.3135 25.1954 98.9041 25.5276 100.737 25.5276C103.883 25.5276 106.546 24.494 108.724 22.4267C110.903 20.3593 111.992 17.8306 111.992 14.8404C111.992 13.659 111.819 12.5885 111.473 11.6286C111.127 10.6688 110.591 9.81974 109.865 9.08141C105.647 10.3366 102.085 11.9978 99.1807 14.0651C96.2761 16.0955 93.994 18.5504 92.3342 21.4299ZM140.571 30.0683C140.571 33.0955 140.208 35.9196 139.482 38.5406C138.755 41.1617 137.666 43.6166 136.214 45.9054C133.344 50.4461 129.609 54.027 125.011 56.6481C120.446 59.2691 115.605 60.5797 110.488 60.5797C101.774 60.5797 94.5818 57.7925 88.911 52.2181C83.2748 46.6068 80.4566 39.5189 80.4566 30.9543C80.4566 21.8729 83.3266 14.4527 89.0666 8.69379C94.8411 2.89793 102.275 0 111.369 0C119.945 0 126.947 2.80564 132.376 8.41692C137.839 14.0282 140.571 21.2453 140.571 30.0683Z" fill="white"/>
<path d="M84.751 147.84L58.2987 150C60.9958 147.01 63.0014 144.075 64.3153 141.195C65.6293 138.316 66.2863 135.418 66.2863 132.502C66.2863 129.659 65.6985 127.37 64.5228 125.635C63.3471 123.863 61.8084 122.977 59.9066 122.977C57.7282 122.977 55.7918 124.14 54.0975 126.466C52.4377 128.792 51.6079 131.523 51.6079 134.661C51.6079 136.396 51.8326 138.002 52.2822 139.479C52.7662 140.919 53.4924 142.34 54.4606 143.743L34.1805 142.524C35.1487 141.195 35.8748 139.885 36.3589 138.593C36.843 137.301 37.0851 135.99 37.0851 134.661C37.0851 131.708 36.4454 129.271 35.166 127.352C33.8866 125.432 32.296 124.472 30.3942 124.472C28.3195 124.472 26.5214 125.598 25 127.85C23.4786 130.065 22.7178 132.76 22.7178 135.935C22.7178 138.261 23.1155 140.402 23.9108 142.358C24.7061 144.315 25.9336 146.216 27.5933 148.062L0 150L8.71368 142.746L7.62447 95.4561L0.311205 92.1337L23.7033 89.5311L20.7987 102.489C23.1846 98.3541 25.8644 95.1793 28.8382 92.9643C31.8119 90.7493 34.8375 89.6418 37.9149 89.6418C40.8541 89.6418 43.4993 90.9893 45.8506 93.6842C48.2019 96.379 49.7752 99.9046 50.5705 104.261C52.5415 99.4616 54.962 95.8253 57.8319 93.3519C60.7365 90.8785 64.0041 89.6418 67.6348 89.6418C72.4412 89.6418 76.4523 92.0414 79.668 96.8405C82.9184 101.64 84.5436 107.675 84.5436 114.948C84.5436 119.895 83.7828 124.712 82.2614 129.401C80.7745 134.089 78.4578 138.87 75.3112 143.743L84.751 147.84Z" fill="white"/>
<path d="M101.763 110.518C102.835 111.921 104.046 112.954 105.394 113.619C106.743 114.283 108.333 114.616 110.166 114.616C113.313 114.616 115.975 113.582 118.154 111.515C120.332 109.447 121.421 106.919 121.421 103.928C121.421 102.747 121.248 101.677 120.902 100.717C120.557 99.7569 120.021 98.9078 119.295 98.1695C115.076 99.4246 111.515 101.086 108.61 103.153C105.705 105.184 103.423 107.639 101.763 110.518ZM150 119.156C150 122.184 149.637 125.008 148.911 127.629C148.185 130.25 147.095 132.705 145.643 134.994C142.773 139.534 139.039 143.115 134.44 145.736C129.876 148.357 125.035 149.668 119.917 149.668C111.203 149.668 104.011 146.881 98.3402 141.306C92.704 135.695 89.8859 128.607 89.8859 120.042C89.8859 110.961 92.7559 103.541 98.4958 97.7819C104.27 91.986 111.705 89.0881 120.799 89.0881C129.374 89.0881 136.376 91.8937 141.805 97.505C147.268 103.116 150 110.333 150 119.156Z" fill="white"/>
</svg>
