<svg width="150" height="150" viewBox="0 0 150 150" fill="none" xmlns="http://www.w3.org/2000/svg">
<path d="M84.751 147.835L58.2987 150C60.9958 147.002 63.0014 144.06 64.3153 141.174C65.6293 138.287 66.2863 135.382 66.2863 132.459C66.2863 129.609 65.6985 127.315 64.5228 125.576C63.3471 123.799 61.8084 122.911 59.9066 122.911C57.7282 122.911 55.7918 124.077 54.0975 126.408C52.4377 128.74 51.6079 131.478 51.6079 134.624C51.6079 136.363 51.8326 137.973 52.2822 139.453C52.7662 140.896 53.4924 142.321 54.4606 143.727L34.1805 142.506C35.1487 141.174 35.8748 139.86 36.3589 138.565C36.843 137.27 37.0851 135.956 37.0851 134.624C37.0851 131.663 36.4454 129.221 35.166 127.297C33.8866 125.372 32.296 124.41 30.3942 124.41C28.3195 124.41 26.5214 125.539 25 127.796C23.4786 130.017 22.7178 132.718 22.7178 135.901C22.7178 138.232 23.1155 140.378 23.9108 142.34C24.7061 144.301 25.9336 146.207 27.5933 148.057L0 150L8.71368 142.728L7.62447 95.323L0.311205 91.9925L23.7033 89.3835L20.7987 102.373C23.1846 98.228 25.8644 95.0455 28.8382 92.8251C31.8119 90.6047 34.8375 89.4945 37.9149 89.4945C40.8541 89.4945 43.4993 90.8453 45.8506 93.5467C48.2019 96.2482 49.7752 99.7823 50.5705 104.149C52.5415 99.3382 54.962 95.6931 57.8319 93.2137C60.7365 90.7343 64.0041 89.4945 67.6348 89.4945C72.4412 89.4945 76.4523 91.9 79.668 96.7108C82.9184 101.522 84.5436 107.572 84.5436 114.862C84.5436 119.821 83.7828 124.651 82.2614 129.35C80.7745 134.05 78.4578 138.843 75.3112 143.727L84.751 147.835Z" fill="white"/>
<path d="M101.763 110.422C102.835 111.828 104.046 112.864 105.394 113.53C106.743 114.196 108.333 114.529 110.166 114.529C113.313 114.529 115.975 113.493 118.154 111.421C120.332 109.348 121.421 106.814 121.421 103.816C121.421 102.632 121.248 101.559 120.902 100.596C120.557 99.6343 120.021 98.7832 119.295 98.043C115.076 99.3012 111.515 100.967 108.61 103.039C105.705 105.074 103.423 107.535 101.763 110.422ZM150 119.081C150 122.116 149.637 124.947 148.911 127.574C148.185 130.202 147.095 132.662 145.643 134.957C142.773 139.509 139.039 143.098 134.44 145.726C129.876 148.353 125.035 149.667 119.917 149.667C111.203 149.667 104.011 146.873 98.3402 141.285C92.704 135.66 89.8859 128.555 89.8859 119.969C89.8859 110.866 92.7559 103.427 98.4958 97.6544C104.27 91.8444 111.705 88.9394 120.799 88.9394C129.374 88.9394 136.376 91.7519 141.805 97.3769C147.268 103.002 150 110.237 150 119.081Z" fill="white"/>
<path d="M64.7821 0L53.89 5.773C57.6245 14.0254 60.4253 21.5377 62.2925 28.3099C64.1943 35.0821 65.1452 41.0771 65.1452 46.295C65.1452 51.92 64.3499 57.1194 62.7593 61.8932C61.1687 66.704 58.8693 70.8487 55.861 74.3273C52.991 77.6949 49.6888 80.2669 45.9543 82.0432C42.2199 83.8195 38.2434 84.7076 34.0249 84.7076C30.0484 84.7076 26.1756 84.2081 22.4066 83.2089C18.6376 82.2467 14.955 80.7665 11.3589 78.7681L2.12656 84.9297L15.7158 61.5046C18.897 65.5383 22.1127 68.5543 25.3631 70.5527C28.6134 72.551 31.9156 73.5502 35.2697 73.5502C39.7303 73.5502 43.3091 72.033 46.0062 68.9984C48.7033 65.9639 50.0518 61.9117 50.0518 56.8418C50.0518 54.9545 49.8444 53.1042 49.4294 51.2909C49.0145 49.4405 48.4094 47.6087 47.6141 45.7954C44.9862 50.1622 41.7358 53.4742 37.8631 55.7316C34.0249 57.989 29.6853 59.1177 24.8444 59.1177C17.7213 59.1177 11.8603 56.9528 7.26141 52.6231C2.6971 48.2933 0.414935 42.7979 0.414935 36.1367C0.414935 31.0299 1.43499 26.145 3.4751 21.4822C5.54979 16.7824 8.81742 11.9346 13.278 6.9387L0 3.99669L31.3278 0.111019C28.9765 3.10854 27.1611 6.18007 25.8817 9.32561C24.6369 12.4712 24.0145 15.4317 24.0145 18.2071C24.0145 21.1307 24.6715 23.5361 25.9855 25.4234C27.334 27.2737 29.0456 28.1989 31.1203 28.1989C34.0595 28.1989 36.4626 26.9777 38.3299 24.5352C40.1971 22.0928 41.1307 18.9103 41.1307 14.9876C41.1307 12.3971 40.8713 10.0472 40.3527 7.93787C39.834 5.82851 39.0214 3.90417 37.9149 2.16487L64.7821 0Z" fill="white"/>
<path d="M98.8776 33.5115C99.9495 34.9177 101.16 35.9539 102.508 36.62C103.857 37.2861 105.447 37.6192 107.28 37.6192C110.427 37.6192 113.089 36.583 115.268 34.5107C117.446 32.4383 118.535 29.9034 118.535 26.9059C118.535 25.7216 118.362 24.6485 118.017 23.6863C117.671 22.7241 117.135 21.873 116.409 21.1329C112.19 22.3911 108.629 24.0564 105.724 26.1287C102.819 28.1641 100.537 30.625 98.8776 33.5115ZM147.114 42.171C147.114 45.2055 146.751 48.0365 146.025 50.664C145.299 53.2914 144.21 55.7523 142.757 58.0467C139.887 62.5985 136.153 66.1881 131.554 68.8156C126.99 71.4431 122.149 72.7568 117.031 72.7568C108.317 72.7568 101.125 69.9628 95.4543 64.3748C89.8181 58.7499 87 51.6446 87 43.0591C87 33.9556 89.87 26.5173 95.61 20.7443C101.385 14.9343 108.819 12.0293 117.913 12.0293C126.488 12.0293 133.49 14.8418 138.919 20.4667C144.382 26.0917 147.114 33.3265 147.114 42.171Z" fill="white"/>
</svg>
