<?xml version="1.0" encoding="UTF-8" standalone="no"?>
<!DOCTYPE svg PUBLIC "-//W3C//DTD SVG 1.1//EN" "http://www.w3.org/Graphics/SVG/1.1/DTD/svg11.dtd">
<svg width="100%" height="100%" viewBox="0 0 150 150" version="1.1" xmlns="http://www.w3.org/2000/svg" xmlns:xlink="http://www.w3.org/1999/xlink" xml:space="preserve" xmlns:serif="http://www.serif.com/" style="fill-rule:evenodd;clip-rule:evenodd;stroke-linejoin:round;stroke-miterlimit:2;">
    <path d="M150,47.595L150,102.405C150,128.673 128.673,150 102.405,150L47.595,150C21.327,150 0,128.673 0,102.405L0,47.595C0,21.327 21.327,0 47.595,0L102.405,0C128.673,0 150,21.327 150,47.595ZM128.973,106.458C128.973,100.113 127.013,94.923 123.094,90.887C119.199,86.852 114.176,84.834 108.024,84.834C101.499,84.834 96.165,86.918 92.023,91.086C87.905,95.228 85.846,100.565 85.846,107.095C85.846,113.255 87.868,118.352 91.911,122.388C95.98,126.397 101.139,128.401 107.391,128.401C111.063,128.401 114.536,127.458 117.81,125.574C121.109,123.688 123.788,121.114 125.847,117.848C126.889,116.201 127.671,114.437 128.192,112.551C128.713,110.667 128.973,108.636 128.973,106.458ZM94.367,100.246C95.558,98.175 97.195,96.409 99.279,94.949C101.363,93.463 103.918,92.268 106.945,91.365C107.466,91.896 107.85,92.507 108.098,93.197C108.346,93.887 108.47,94.657 108.47,95.507C108.47,97.658 107.689,99.475 106.126,100.963C104.563,102.449 102.653,103.192 100.395,103.192C99.08,103.192 97.94,102.954 96.972,102.476C96.005,101.998 95.136,101.255 94.367,100.246ZM67.836,21.027L48.561,22.58C49.355,23.828 49.938,25.208 50.31,26.722C50.682,28.235 50.868,29.921 50.868,31.779C50.868,34.594 50.198,36.877 48.859,38.629C47.519,40.381 45.795,41.257 43.686,41.257C42.198,41.257 40.97,40.594 40.002,39.266C39.06,37.912 38.588,36.187 38.588,34.089C38.588,32.098 39.035,29.974 39.928,27.717C40.846,25.461 42.148,23.257 43.835,21.107L21.36,23.894L30.886,26.005C27.686,29.589 25.341,33.067 23.853,36.439C22.389,39.784 21.658,43.288 21.658,46.952C21.658,51.731 23.295,55.674 26.569,58.78C29.869,61.886 34.074,63.439 39.184,63.439C42.657,63.439 45.77,62.629 48.524,61.01C51.302,59.39 53.634,57.014 55.519,53.882C56.09,55.182 56.524,56.497 56.822,57.824C57.119,59.125 57.268,60.452 57.268,61.806C57.268,65.444 56.301,68.351 54.366,70.528C52.431,72.705 49.863,73.793 46.663,73.793C44.257,73.793 41.888,73.077 39.556,71.643C37.224,70.209 34.917,68.045 32.635,65.152L22.886,81.957L29.509,77.537C32.089,78.971 34.731,80.032 37.435,80.723C40.139,81.44 42.917,81.798 45.77,81.798C48.797,81.798 51.649,81.161 54.329,79.886C57.008,78.612 59.377,76.767 61.436,74.351C63.594,71.855 65.244,68.882 66.385,65.43C67.526,62.006 68.096,58.275 68.096,54.24C68.096,50.496 67.414,46.196 66.05,41.337C64.71,36.479 62.701,31.089 60.022,25.169L67.836,21.027ZM82.162,127.087L75.39,124.14C77.647,120.636 79.309,117.197 80.376,113.825C81.467,110.454 82.013,106.989 82.013,103.431C82.013,98.201 80.847,93.861 78.515,90.409C76.208,86.958 73.331,85.232 69.883,85.232C67.278,85.232 64.934,86.122 62.85,87.9C60.791,89.679 59.054,92.294 57.64,95.746C57.07,92.613 55.941,90.077 54.254,88.139C52.567,86.201 50.67,85.232 48.561,85.232C46.353,85.232 44.182,86.029 42.049,87.622C39.916,89.215 37.993,91.498 36.281,94.471L38.365,85.153L21.583,87.024L26.83,89.414L27.611,123.423L21.36,128.64L41.156,127.246C39.965,125.919 39.085,124.551 38.514,123.145C37.943,121.737 37.658,120.197 37.658,118.525C37.658,116.242 38.204,114.304 39.295,112.71C40.387,111.091 41.677,110.281 43.165,110.281C44.53,110.281 45.671,110.971 46.589,112.352C47.507,113.733 47.966,115.485 47.966,117.609C47.966,118.565 47.792,119.507 47.445,120.436C47.097,121.365 46.576,122.308 45.882,123.264L60.431,124.14C59.736,123.131 59.216,122.109 58.868,121.073C58.546,120.012 58.385,118.857 58.385,117.609C58.385,115.352 58.98,113.388 60.171,111.715C61.386,110.042 62.775,109.206 64.338,109.206C65.703,109.206 66.806,109.843 67.65,111.118C68.493,112.365 68.915,114.011 68.915,116.056C68.915,118.153 68.444,120.237 67.501,122.308C66.558,124.379 65.12,126.489 63.185,128.64L82.162,127.087ZM126.903,51.281C126.903,44.936 124.943,39.746 121.023,35.71C117.128,31.675 112.105,29.657 105.953,29.657C99.429,29.657 94.096,31.741 89.953,35.909C85.835,40.051 83.776,45.387 83.776,51.918C83.776,58.078 85.797,63.175 89.841,67.211C93.909,71.22 99.069,73.224 105.32,73.224C108.992,73.224 112.465,72.282 115.74,70.397C119.039,68.512 121.718,65.936 123.777,62.671C124.819,61.025 125.6,59.259 126.121,57.374C126.642,55.489 126.903,53.458 126.903,51.281ZM92.297,45.069C93.487,42.998 95.124,41.232 97.209,39.772C99.293,38.285 101.847,37.091 104.874,36.188C105.395,36.719 105.78,37.33 106.028,38.02C106.275,38.71 106.399,39.48 106.399,40.33C106.399,42.48 105.618,44.299 104.056,45.786C102.492,47.272 100.583,48.016 98.325,48.016C97.01,48.016 95.869,47.777 94.901,47.299C93.934,46.821 93.066,46.078 92.297,45.069Z" style="fill:url(#_Linear1);"/>
    <defs>
        <linearGradient id="_Linear1" x1="0" y1="0" x2="1" y2="0" gradientUnits="userSpaceOnUse" gradientTransform="matrix(150,-150,150,150,0,150)"><stop offset="0" style="stop-color:black;stop-opacity:1"/><stop offset="0.47" style="stop-color:rgb(43,52,76);stop-opacity:1"/><stop offset="1" style="stop-color:rgb(56,68,98);stop-opacity:1"/></linearGradient>
    </defs>
</svg>
